<svg width="48" height="50" viewBox="0 0 48 50" fill="none" xmlns="http://www.w3.org/2000/svg">
<path d="M34.1732 30.0282C34.3598 28.4014 34.4998 26.7746 34.4998 25.0986C34.4998 23.4225 34.3598 21.7958 34.1732 20.169H42.0598C42.4332 21.7465 42.6665 23.3979 42.6665 25.0986C42.6665 26.7993 42.4332 28.4507 42.0598 30.0282H34.1732ZM30.0432 43.7324C31.4432 40.9965 32.5165 38.0387 33.2632 34.9577H40.1465C37.9065 39.0246 34.3365 42.1796 30.0432 43.7324ZM29.4598 30.0282H18.5398C18.3065 28.4014 18.1665 26.7746 18.1665 25.0986C18.1665 23.4225 18.3065 21.7711 18.5398 20.169H29.4598C29.6698 21.7711 29.8332 23.4225 29.8332 25.0986C29.8332 26.7746 29.6698 28.4014 29.4598 30.0282ZM23.9998 44.7183C22.0632 41.7605 20.4998 38.4824 19.5432 34.9577H28.4565C27.4998 38.4824 25.9365 41.7605 23.9998 44.7183ZM14.6665 15.2394H7.85317C10.0698 11.1479 13.6632 7.99294 17.9332 6.46477C16.5332 9.20068 15.4832 12.1584 14.6665 15.2394ZM7.85317 34.9577H14.6665C15.4832 38.0387 16.5332 40.9965 17.9332 43.7324C13.6632 42.1796 10.0698 39.0246 7.85317 34.9577ZM5.93984 30.0282C5.5665 28.4507 5.33317 26.7993 5.33317 25.0986C5.33317 23.3979 5.5665 21.7465 5.93984 20.169H13.8265C13.6398 21.7958 13.4998 23.4225 13.4998 25.0986C13.4998 26.7746 13.6398 28.4014 13.8265 30.0282H5.93984ZM23.9998 5.45421C25.9365 8.41195 27.4998 11.7148 28.4565 15.2394H19.5432C20.4998 11.7148 22.0632 8.41195 23.9998 5.45421ZM40.1465 15.2394H33.2632C32.5165 12.1584 31.4432 9.20068 30.0432 6.46477C34.3365 8.01759 37.9065 11.1479 40.1465 15.2394ZM23.9998 0.450684C11.0965 0.450684 0.666504 11.5422 0.666504 25.0986C0.666504 31.6356 3.12483 37.9049 7.50068 42.5273C9.66738 44.816 12.2396 46.6316 15.0706 47.8703C17.9015 49.1089 20.9357 49.7465 23.9998 49.7465C30.1882 49.7465 36.1231 47.1496 40.499 42.5273C44.8748 37.9049 47.3332 31.6356 47.3332 25.0986C47.3332 21.8618 46.7296 18.6567 45.557 15.6662C44.3844 12.6758 42.6657 9.95865 40.499 7.66988C38.3323 5.38111 35.7601 3.56556 32.9291 2.32689C30.0982 1.08822 27.064 0.450684 23.9998 0.450684Z" fill="black"/>
</svg>
