<svg width="88" height="80" viewBox="0 0 88 80" fill="none" xmlns="http://www.w3.org/2000/svg">
<path d="M88 56.24C88 57.16 88 58 87.84 58.8C87.12 48.56 78.56 40.44 68 40.44C66.52 40.44 65.08 40.64 63.68 40.92C63.84 42 64 42.92 64 44C64 53.4 57.24 61.28 48.28 63.24C49.68 72.2 57.24 79.16 66.6 79.84C65.72 80 64.88 80 64 80C55.68 80 48.28 75.76 44 69.36C39.72 75.76 32.36 80 24 80C23.12 80 22.28 80 21.4 79.84C30.76 79.16 38.28 72.24 39.72 63.24C30.72 61.28 24 53.4 24 44C24 42.92 24.16 42 24.28 40.92C22.92 40.64 21.48 40.44 20 40.44C9.44 40.44 0.88 48.56 0.12 58.8C-1.11759e-07 58 0 57.16 0 56.24C0 43.4 10.36 32.96 23.24 32.56C21.2 29.08 20 25 20 20.68C20 11.76 24.92 4 32.24 0C27.24 3.6 24 9.36 24 16C24 21.4 26.24 26.36 29.88 30C33.52 26.36 38.48 24.16 44 24.16C49.48 24.16 54.48 26.36 58 30C61.72 26.36 64 21.4 64 16C64 9.36 60.72 3.6 55.76 0C63.08 4 68 11.76 68 20.68C68 25 66.8 29.08 64.76 32.56C77.68 32.96 88 43.4 88 56.24ZM33.08 32.44C36.2 34.48 40 35.68 44 35.68C48 35.68 51.8 34.48 54.92 32.44C52 29.8 48.24 28.12 44 28.12C39.76 28.12 36 29.8 33.08 32.44ZM44 49.88C47.28 49.88 50 47.2 50 44C50 42.4087 49.3679 40.8826 48.2426 39.7574C47.1174 38.6321 45.5913 38 44 38C42.4087 38 40.8826 38.6321 39.7574 39.7574C38.6321 40.8826 38 42.4087 38 44C38 47.2 40.68 49.88 44 49.88ZM39.88 59.16C39.48 51.6 34.84 45.16 28.2 42.2C28.12 42.8 28 43.36 28 44C28 51.28 33.08 57.36 39.88 59.16ZM59.84 42.2C53.16 45.16 48.48 51.6 48 59.16C54.92 57.36 60 51.28 60 44C60 43.36 59.88 42.8 59.84 42.2Z" fill="white"/>
</svg>
