<svg width="86" height="78" viewBox="0 0 86 78" fill="none" xmlns="http://www.w3.org/2000/svg">
<path d="M19.7998 0.76001L67.3998 48.36L75.8798 39.88L81.5198 45.52L71.6398 55.4L84.3598 68.12C85.9198 69.68 85.9198 72.2 84.3598 73.76L81.5198 76.6C79.9598 78.16 77.4398 78.16 75.8798 76.6L62.9998 63.92L53.2398 73.8L47.5998 68.16L56.0798 59.68L8.47985 12.08V0.76001H19.7998ZM58.5598 31L77.5198 12.04V0.76001H66.1998L47.2398 19.72L58.5598 31ZM38.7598 51L27.4398 39.52L18.5998 48.36L10.1198 39.88L4.47985 45.52L14.3598 55.4L1.63985 68.16C0.0798486 69.72 0.0798486 72.24 1.63985 73.8L4.47985 76.64C6.03985 78.2 8.55985 78.2 10.1198 76.64L22.9998 63.92L32.7598 73.8L38.3998 68.16L29.9198 59.68L38.7598 51Z" fill="white"/>
</svg>
